<svg width="985" height="337" viewBox="0 0 985 337" fill="none" xmlns="http://www.w3.org/2000/svg">
<g style="mix-blend-mode:multiply">
<path d="M286.336 133.315C308.198 111.387 316.396 89.459 316.396 83.0634C316.396 77.4093 319.955 48.9043 317.634 37.9517C316.027 34.4749 315.277 33.0683 316.396 34.6396C316.924 35.381 317.329 36.5155 317.634 37.9517C322.567 48.6268 335.572 78.8177 327.326 102.25C318.582 127.102 299.392 146.106 290.891 152.501C273.728 161.714 233.53 176.918 210.038 164.036C229.708 160.599 269.453 150.249 286.336 133.315Z" fill="#DF75FF"/>
</g>
<ellipse cx="241" cy="84.5" rx="89" ry="84.5" fill="#DF75FF"/>
<ellipse cx="51.5" cy="133" rx="51.5" ry="49" fill="#DF75FF"/>
<ellipse cx="169.5" cy="308.5" rx="28.5" ry="27.5" fill="#DF75FF"/>
<ellipse cx="767" cy="266.5" rx="57" ry="58.5" fill="#DF75FF"/>
<ellipse cx="824" cy="81" rx="49" ry="46" fill="#DF75FF"/>
<path d="M727.061 240.405C716.035 258.976 720.469 283.659 723.465 291C726.342 248.143 762.416 221.556 775 216C767.41 216.595 738.087 221.833 727.061 240.405Z" fill="#D9D9D9"/>
<path d="M790.905 60.5C781.684 76.1 785.392 96.8333 787.898 103C790.304 67 820.475 44.6667 831 40C824.652 40.5 800.127 44.9 790.905 60.5Z" fill="#D9D9D9"/>
<path d="M14.8913 109.5C5.69133 125.1 9.39143 145.833 11.8914 152C14.2914 116 44.3915 93.6667 54.8915 89C48.5582 89.5 24.0913 93.9 14.8913 109.5Z" fill="#D9D9D9"/>
<path d="M174.858 41.9127C161.025 65.4365 166.589 96.7011 170.347 106C173.956 51.7143 219.213 18.037 235 11C225.478 11.754 188.691 18.3889 174.858 41.9127Z" fill="#D9D9D9"/>
<path d="M151.338 296.714C146.125 305.629 148.222 317.476 149.638 321C150.998 300.429 168.051 287.667 174 285C170.412 285.286 156.55 287.8 151.338 296.714Z" fill="#D9D9D9"/>
<g style="mix-blend-mode:multiply">
<path d="M79.5 162.5C91.5 150.5 96 138.5 96 135C96 131.906 97.9539 116.306 96.6796 110.313C95.7977 108.41 95.3858 107.64 96 108.5C96.2898 108.906 96.5125 109.527 96.6796 110.313C99.3873 116.155 106.526 132.677 102 145.5C97.2 159.1 86.6667 169.5 82 173C72.5793 178.041 50.514 186.362 37.6189 179.312C48.4156 177.431 70.2326 171.767 79.5 162.5Z" fill="#DF75FF"/>
</g>
<g style="mix-blend-mode:multiply">
<path d="M187.042 325.634C194.03 318.649 196.651 311.665 196.651 309.628C196.651 307.827 197.789 298.747 197.047 295.259C196.533 294.151 196.293 293.703 196.651 294.204C196.82 294.44 196.95 294.801 197.047 295.259C198.624 298.659 202.781 308.275 200.145 315.739C197.35 323.655 191.216 329.708 188.498 331.745C183.012 334.679 170.161 339.522 162.652 335.419C168.939 334.324 181.645 331.027 187.042 325.634Z" fill="#DF75FF"/>
</g>
<ellipse cx="953.5" cy="207.5" rx="28.5" ry="27.5" fill="#DF75FF"/>
<path d="M935.338 195.714C930.125 204.629 932.222 216.476 933.638 220C934.998 199.429 952.051 186.667 958 184C954.412 184.286 940.55 186.8 935.338 195.714Z" fill="#D9D9D9"/>
<g style="mix-blend-mode:multiply">
<path d="M971.042 224.634C978.03 217.649 980.651 210.665 980.651 208.628C980.651 206.827 981.789 197.747 981.047 194.259C980.533 193.151 980.293 192.703 980.651 193.204C980.82 193.44 980.95 193.801 981.047 194.259C982.624 197.659 986.781 207.275 984.145 214.739C981.35 222.655 975.216 228.708 972.498 230.745C967.012 233.679 954.161 238.522 946.652 234.419C952.939 233.324 965.645 230.027 971.042 224.634Z" fill="#DF75FF"/>
</g>
</svg>
