<svg width="55" height="56" viewBox="0 0 55 56" fill="none" xmlns="http://www.w3.org/2000/svg">
<path d="M16.5561 56C15.1531 56 13.9605 55.5094 12.9783 54.5282C11.9962 53.5469 11.5051 52.3554 11.5051 50.9537C11.5051 49.5519 11.9962 48.3604 12.9783 47.3792C13.9605 46.398 15.1531 45.9074 16.5561 45.9074C17.9592 45.9074 19.1518 46.398 20.1339 47.3792C21.1161 48.3604 21.6071 49.5519 21.6071 50.9537C21.6071 52.3554 21.1161 53.5469 20.1339 54.5282C19.1518 55.5094 17.9592 56 16.5561 56ZM44.6173 56C43.2143 56 42.0217 55.5094 41.0395 54.5282C40.0574 53.5469 39.5663 52.3554 39.5663 50.9537C39.5663 49.5519 40.0574 48.3604 41.0395 47.3792C42.0217 46.398 43.2143 45.9074 44.6173 45.9074C46.0204 45.9074 47.213 46.398 48.1952 47.3792C49.1773 48.3604 49.6684 49.5519 49.6684 50.9537C49.6684 52.3554 49.1773 53.5469 48.1952 54.5282C47.213 55.5094 46.0204 56 44.6173 56ZM12.9082 9.74218L20.625 25.7222H40.8291L49.5982 9.74218H12.9082ZM10.8036 5.53692H52.1237C53.1994 5.53692 54.0179 6.02753 54.5791 7.00876C55.1403 7.98999 55.1403 8.97121 54.5791 9.95244L45.1084 26.9837C44.594 27.8715 43.9275 28.5841 43.1091 29.1214C42.2906 29.6587 41.3903 29.9274 40.4082 29.9274H19.1518L15.2232 37.2165H49.6684V41.4218H15.8546C13.8903 41.4218 12.4756 40.7676 11.6103 39.4593C10.7451 38.151 10.7568 36.6792 11.6454 35.0438L16.1352 26.7735L5.47194 4.20526H0V0H8.20791L10.8036 5.53692Z" fill="white"/>
</svg>
