<svg width="46" height="46" viewBox="0 0 46 46" fill="none" xmlns="http://www.w3.org/2000/svg">
<g clip-path="url(#clip0_75_84)">
<path d="M0 23.0023C0.119612 16.4742 2.42444 11.0227 6.91909 6.65227C11.4137 2.28183 16.7733 0.059806 23.0023 0C29.7098 0.119612 35.2073 2.41064 39.4903 6.87309C43.7734 11.3355 45.9448 16.7135 46.0046 23.0023C45.885 29.4706 43.5802 34.9083 39.0855 39.3109C34.5909 43.709 29.2313 45.9402 23.0023 46C20.8447 46 18.6917 45.6688 16.5341 45.0109C16.9527 44.353 17.3713 43.6032 17.79 42.7659C18.2684 41.7492 18.8665 39.8308 19.5888 37.0153C19.7682 36.2378 20.0396 35.1889 20.3984 33.8686C20.8171 34.5863 21.5348 35.2441 22.5561 35.8468C25.2519 37.1027 28.095 36.9831 31.0899 35.488C34.2044 33.6892 36.362 30.9059 37.5582 27.1335C38.6347 23.1817 38.5012 19.5106 37.1533 16.1292C35.8054 12.7433 33.3947 10.305 29.9214 8.80528C25.551 7.54936 21.2955 7.68277 17.1643 9.21012C13.0331 10.7375 10.1578 13.3597 8.53845 17.0723C8.11981 18.4478 7.86679 19.8142 7.77478 21.1621C7.68277 22.5101 7.72877 23.8258 7.90819 25.1139C8.08761 26.402 8.53845 27.5568 9.25613 28.5735C9.9738 29.5902 10.9353 30.3722 12.1314 30.9105C12.4304 31.0301 12.6697 31.0301 12.8491 30.9105C13.0883 30.7909 13.3275 30.3124 13.5668 29.4752C13.806 28.6379 13.898 28.0674 13.8382 27.7684C13.7784 27.6488 13.6588 27.4371 13.4793 27.1381C12.2234 25.1001 11.8002 22.9609 12.2234 20.7159C12.6421 18.4708 13.5714 16.5663 15.0067 15.0113C17.2241 13.0331 19.8142 11.9566 22.7769 11.7772C25.7396 11.5978 28.2744 12.4074 30.3676 14.2016C31.504 15.5174 32.24 17.1045 32.5667 18.9631C32.8933 20.8217 32.8979 22.6021 32.5667 24.3088C32.2354 26.0156 31.6512 27.6166 30.8139 29.1163C29.3141 31.4534 27.5476 32.6495 25.5142 32.7093C24.318 32.6495 23.3427 32.1848 22.5929 31.3153C21.843 30.4458 21.6176 29.4429 21.9212 28.3066C22.0408 27.6488 22.3996 26.3606 22.9977 24.4422C23.5958 22.5239 23.927 21.0885 23.9868 20.1316C23.8074 17.8544 22.7585 16.6859 20.8401 16.6261C19.3403 16.8055 18.2362 17.4817 17.514 18.6457C16.7917 19.8096 16.4052 21.1483 16.3454 22.6435C16.5249 24.3824 16.7963 25.5786 17.1551 26.2364C16.4972 28.9323 15.9866 31.0899 15.6278 32.7047C15.5082 33.1233 15.1769 34.4114 14.6387 36.5691C14.1004 38.7267 13.8014 40.3736 13.7416 41.51V44.0264C9.49075 42.0482 6.13241 39.1913 3.68037 35.4465C1.22832 31.7018 0 27.5522 0 23.0023Z" fill="white"/>
</g>
<defs>
<clipPath id="clip0_75_84">
<rect width="46" height="46" fill="white"/>
</clipPath>
</defs>
</svg>
