<svg width="51" height="47" viewBox="0 0 51 47" fill="none" xmlns="http://www.w3.org/2000/svg">
<path d="M25.4167 46.576L22.8115 44.225C18.3212 40.116 14.6146 36.5682 11.6917 33.5818C8.76875 30.5953 6.43889 27.9266 4.70208 25.5755C2.96528 23.2245 1.7474 21.0958 1.04844 19.1896C0.349479 17.2833 0 15.3559 0 13.4073C0 9.59479 1.28142 6.40712 3.84427 3.84427C6.40712 1.28142 9.57361 0 13.3437 0C15.7583 0 17.9929 0.571875 20.0474 1.71562C22.1019 2.85937 23.8917 4.51146 25.4167 6.67187C27.1958 4.38437 29.0809 2.70052 31.0719 1.62031C33.0628 0.540104 35.2021 0 37.4896 0C41.2597 0 44.4262 1.28142 46.9891 3.84427C49.5519 6.40712 50.8333 9.59479 50.8333 13.4073C50.8333 15.3559 50.4838 17.2833 49.7849 19.1896C49.0859 21.0958 47.8681 23.2245 46.1312 25.5755C44.3944 27.9266 42.0646 30.5953 39.1417 33.5818C36.2187 36.5682 32.5121 40.116 28.0219 44.225L25.4167 46.576ZM25.4167 41.5562C29.6951 37.6167 33.2217 34.2384 35.9964 31.4214C38.771 28.6043 40.9738 26.1368 42.6047 24.0188C44.2356 21.9007 45.3793 20.0156 46.0359 18.3635C46.6925 16.7115 47.0208 15.0594 47.0208 13.4073C47.0208 10.6115 46.1312 8.31337 44.3521 6.51302C42.5729 4.71267 40.2854 3.8125 37.4896 3.8125C35.3292 3.8125 33.317 4.47969 31.4531 5.81406C29.5892 7.14844 28.0854 9.02292 26.9417 11.4375H23.8281C22.7267 9.06528 21.2441 7.20139 19.3802 5.84583C17.5163 4.49028 15.5042 3.8125 13.3437 3.8125C10.5479 3.8125 8.26042 4.71267 6.48125 6.51302C4.70208 8.31337 3.8125 10.6115 3.8125 13.4073C3.8125 15.0594 4.1408 16.722 4.7974 18.3953C5.45399 20.0686 6.59774 21.9748 8.22865 24.1141C9.85955 26.2533 12.0729 28.7208 14.8687 31.5167C17.6646 34.3125 21.1806 37.659 25.4167 41.5562Z" fill="white"/>
</svg>
