<svg width="40" height="37" viewBox="0 0 40 37" fill="none" xmlns="http://www.w3.org/2000/svg">
<g clip-path="url(#clip0_43_10)">
<path d="M37.7917 0H2.20833C0.988333 0 0 0.914208 0 2.04271V34.9588C0 36.0858 0.988333 37 2.20833 37H21.3667V22.6717H16.1533V17.0878H21.3667V12.97C21.3667 8.19088 24.5217 5.58854 29.1317 5.58854C31.34 5.58854 33.2367 5.74117 33.79 5.809V10.804L30.5933 10.8055C28.0867 10.8055 27.6017 11.9078 27.6017 13.5235V17.0894H33.58L32.8017 22.6733H27.6017V37H37.795C39.0117 37 40 36.0858 40 34.9573V2.04271C40 0.914208 39.0117 0 37.7917 0Z" fill="white"/>
</g>
<defs>
<clipPath id="clip0_43_10">
<rect width="40" height="37" fill="white"/>
</clipPath>
</defs>
</svg>
