<svg width="55" height="56" viewBox="0 0 55 56" fill="none" xmlns="http://www.w3.org/2000/svg">
<path d="M20.3764 8.94434C14.0677 8.94434 8.88343 14.1573 8.88343 20.5162V36.728C8.88343 43.08 14.0608 48.2999 20.3764 48.2999H36.4776C42.7862 48.2999 47.9705 43.087 47.9705 36.728V20.5162C47.9705 14.1643 42.7931 8.94434 36.4776 8.94434H20.3764ZM20.3764 12.5221H36.4776C40.8707 12.5221 44.4171 16.0929 44.4171 20.5162V36.728C44.4171 41.1513 40.8707 44.7221 36.4776 44.7221H20.3764C15.9832 44.7221 12.4368 41.1513 12.4368 36.728V20.5162C12.4368 16.0929 15.9832 12.5221 20.3764 12.5221ZM38.9205 16.4353C38.0252 16.4353 37.3104 17.1551 37.3104 18.0565C37.3104 18.9579 38.0252 19.6777 38.9205 19.6777C39.8158 19.6777 40.5306 18.9579 40.5306 18.0565C40.5306 17.1551 39.8158 16.4353 38.9205 16.4353ZM28.427 17.8888C22.5625 17.8888 17.7669 22.7174 17.7669 28.6221C17.7669 34.5268 22.5625 39.3554 28.427 39.3554C34.2914 39.3554 39.0871 34.5268 39.0871 28.6221C39.0871 22.7174 34.2914 17.8888 28.427 17.8888ZM28.427 21.4666C32.3759 21.4666 35.5337 24.646 35.5337 28.6221C35.5337 32.5982 32.3759 35.7777 28.427 35.7777C24.478 35.7777 21.3202 32.5982 21.3202 28.6221C21.3202 24.646 24.478 21.4666 28.427 21.4666Z" fill="white"/>
</svg>
