<svg width="72" height="72" viewBox="0 0 72 72" fill="none" xmlns="http://www.w3.org/2000/svg">
<g clip-path="url(#clip0_39_12)">
<path d="M36.3 6.30005C19.74 6.30005 6.29999 19.7401 6.29999 36.3001C6.29999 52.8601 19.74 66.3001 36.3 66.3001C52.86 66.3001 66.3 52.8601 66.3 36.3001C66.3 19.7401 52.86 6.30005 36.3 6.30005ZM22.35 55.8001C26.28 52.9801 31.08 51.3001 36.3 51.3001C41.52 51.3001 46.32 52.9801 50.25 55.8001C46.32 58.6201 41.52 60.3001 36.3 60.3001C31.08 60.3001 26.28 58.6201 22.35 55.8001ZM54.72 51.6601C49.65 47.7001 43.26 45.3001 36.3 45.3001C29.34 45.3001 22.95 47.7001 17.88 51.6601C14.4 47.4901 12.3 42.1501 12.3 36.3001C12.3 23.0401 23.04 12.3 36.3 12.3C49.56 12.3 60.3 23.0401 60.3 36.3001C60.3 42.1501 58.2 47.4901 54.72 51.6601Z" fill="white"/>
<path d="M36.3 18.3C30.51 18.3 25.8 23.01 25.8 28.8C25.8 34.59 30.51 39.3 36.3 39.3C42.09 39.3 46.8 34.59 46.8 28.8C46.8 23.01 42.09 18.3 36.3 18.3ZM36.3 33.3C33.81 33.3 31.8 31.29 31.8 28.8C31.8 26.31 33.81 24.3 36.3 24.3C38.79 24.3 40.8 26.31 40.8 28.8C40.8 31.29 38.79 33.3 36.3 33.3Z" fill="white"/>
</g>
<defs>
<clipPath id="clip0_39_12">
<rect width="72" height="72" fill="white"/>
</clipPath>
</defs>
</svg>
