<svg width="43" height="36" viewBox="0 0 43 36" fill="none" xmlns="http://www.w3.org/2000/svg">
<path d="M43 4.25875C41.418 4.98176 39.7177 5.46869 37.9332 5.68817C39.7553 4.56492 41.1546 2.78506 41.8121 0.663989C40.1082 1.70424 38.2198 2.46045 36.2096 2.86806C34.6025 1.10296 32.3073 0 29.7703 0C24.0746 0 19.8893 5.47053 21.1757 11.1495C13.846 10.7714 7.34583 7.15633 2.99388 1.66182C0.682625 5.7435 1.79525 11.0831 5.72258 13.787C4.2785 13.739 2.91683 13.3314 1.72896 12.6508C1.63221 16.8579 4.56158 20.7939 8.80425 21.67C7.56262 22.0168 6.20275 22.0979 4.81958 21.8249C5.94117 25.4326 9.19842 28.0572 13.0612 28.131C9.3525 31.1245 4.67983 32.4617 0 31.8936C3.90404 34.4703 8.54267 35.9734 13.5235 35.9734C29.9029 35.9734 39.1569 21.7327 38.5979 8.96016C40.3215 7.67829 41.8175 6.07919 43 4.25875Z" fill="white"/>
</svg>
